<svg width="189" height="57" viewBox="0 0 189 57" fill="none" xmlns="http://www.w3.org/2000/svg">
<rect width="188.625" height="55.889" rx="10.1108" transform="matrix(1 0 0 -1 0 56.167)" fill="#292929"/>
<g filter="url(#filter0_ii_6040_2129)">
<path d="M16.4043 10.81C15.9469 11.2404 15.6765 11.9082 15.6765 12.7731V43.6742C15.6765 44.5404 15.9469 45.2069 16.4043 45.6373L16.5206 45.7379L35.9946 28.4276V28.2236V28.0196L16.5206 10.708L16.4043 10.81Z" fill="url(#paint0_linear_6040_2129)"/>
<path d="M42.4854 34.1995L35.9951 28.4276V28.2236V28.0196L42.487 22.249L42.6332 22.3231L50.3244 26.2074C52.5203 27.3168 52.5203 29.1318 50.3244 30.2426L42.6332 34.1268L42.4854 34.1995Z" fill="url(#paint1_linear_6040_2129)"/>
<g filter="url(#filter1_i_6040_2129)">
<path d="M42.6334 34.1265L35.9938 28.2246L16.405 45.6382C17.1281 46.3201 18.3243 46.4039 19.6714 45.7249L42.6334 34.1265Z" fill="url(#paint2_linear_6040_2129)"/>
</g>
<path d="M42.6334 22.3214L19.6714 10.7245C18.3243 10.044 17.1281 10.1292 16.405 10.8111L35.9954 28.2247L42.6334 22.3214Z" fill="url(#paint3_linear_6040_2129)"/>
</g>
<path d="M61.7337 18.0076H59.0803V9.40932H61.8513C62.6853 9.40932 63.3991 9.58146 63.9924 9.92572C64.5858 10.2672 65.0406 10.7584 65.3569 11.3994C65.6732 12.0375 65.8313 12.8016 65.8313 13.6917C65.8313 14.5873 65.6718 15.3584 65.3527 16.005C65.0336 16.6488 64.569 17.1442 63.9589 17.4912C63.3487 17.8355 62.607 18.0076 61.7337 18.0076ZM60.1215 17.084H61.6665C62.3775 17.084 62.9666 16.9468 63.4341 16.6725C63.9015 16.3982 64.2499 16.0078 64.4795 15.5012C64.709 14.9946 64.8237 14.3914 64.8237 13.6917C64.8237 12.9976 64.7104 12.4 64.4837 11.899C64.2569 11.3952 63.9183 11.0089 63.4676 10.7402C63.017 10.4687 62.4558 10.333 61.7841 10.333H60.1215V17.084Z" fill="white"/>
<path d="M67.4435 18.0076V11.5589H68.4343V18.0076H67.4435ZM67.9473 10.4841C67.7542 10.4841 67.5877 10.4183 67.4477 10.2868C67.3106 10.1552 67.242 9.9971 67.242 9.81237C67.242 9.62764 67.3106 9.4695 67.4477 9.33795C67.5877 9.2064 67.7542 9.14062 67.9473 9.14062C68.1405 9.14062 68.3056 9.2064 68.4427 9.33795C68.5827 9.4695 68.6527 9.62764 68.6527 9.81237C68.6527 9.9971 68.5827 10.1552 68.4427 10.2868C68.3056 10.4183 68.1405 10.4841 67.9473 10.4841Z" fill="white"/>
<path d="M74.817 13.0031L73.9269 13.2551C73.8709 13.1067 73.7883 12.9626 73.6792 12.8226C73.5728 12.6799 73.4273 12.5623 73.2426 12.47C73.0578 12.3776 72.8213 12.3314 72.533 12.3314C72.1384 12.3314 71.8095 12.4224 71.5464 12.6043C71.2861 12.7834 71.156 13.0115 71.156 13.2886C71.156 13.5349 71.2455 13.7295 71.4247 13.8722C71.6038 14.015 71.8837 14.1339 72.2643 14.2291L73.2216 14.4642C73.7981 14.6041 74.2278 14.8183 74.5105 15.1065C74.7932 15.392 74.9345 15.7601 74.9345 16.2107C74.9345 16.5802 74.8282 16.9105 74.6154 17.2015C74.4055 17.4926 74.1116 17.7221 73.7338 17.8901C73.3559 18.058 72.9165 18.142 72.4155 18.142C71.7577 18.142 71.2133 17.9992 70.7823 17.7137C70.3513 17.4283 70.0784 17.0112 69.9636 16.4626L70.9041 16.2275C70.9936 16.5746 71.163 16.8349 71.4121 17.0084C71.664 17.182 71.9928 17.2687 72.3987 17.2687C72.8605 17.2687 73.2272 17.1708 73.4987 16.9748C73.773 16.7761 73.9101 16.5382 73.9101 16.2611C73.9101 16.0372 73.8317 15.8497 73.675 15.6985C73.5183 15.5446 73.2775 15.4298 72.9529 15.3542L71.8781 15.1023C71.2875 14.9624 70.8537 14.7455 70.5766 14.4516C70.3023 14.1549 70.1651 13.784 70.1651 13.339C70.1651 12.9752 70.2673 12.6533 70.4716 12.3734C70.6787 12.0935 70.96 11.8738 71.3155 11.7142C71.6738 11.5547 72.0796 11.4749 72.533 11.4749C73.1712 11.4749 73.6722 11.6149 74.0361 11.8948C74.4027 12.1747 74.663 12.5441 74.817 13.0031Z" fill="white"/>
<path d="M76.426 20.4259V11.5589H77.3832V12.5833H77.5008C77.5736 12.4714 77.6743 12.3286 77.8031 12.1551C77.9346 11.9787 78.1221 11.822 78.3656 11.6849C78.612 11.5449 78.945 11.4749 79.3649 11.4749C79.9079 11.4749 80.3865 11.6107 80.8007 11.8822C81.215 12.1537 81.5382 12.5385 81.7705 13.0367C82.0029 13.5349 82.119 14.1227 82.119 14.8001C82.119 15.483 82.0029 16.075 81.7705 16.576C81.5382 17.0742 81.2164 17.4604 80.8049 17.7347C80.3935 18.0062 79.9191 18.142 79.3817 18.142C78.9674 18.142 78.6357 18.0734 78.3866 17.9363C78.1375 17.7963 77.9458 17.6382 77.8115 17.4618C77.6771 17.2827 77.5736 17.1344 77.5008 17.0168H77.4168V20.4259H76.426ZM77.4 14.7833C77.4 15.2703 77.4714 15.6999 77.6141 16.0722C77.7569 16.4416 77.9654 16.7313 78.2397 16.9412C78.514 17.1484 78.8499 17.2519 79.2473 17.2519C79.6616 17.2519 80.0072 17.1428 80.2843 16.9244C80.5642 16.7033 80.7741 16.4066 80.9141 16.0344C81.0568 15.6593 81.1282 15.2423 81.1282 14.7833C81.1282 14.3298 81.0582 13.9212 80.9183 13.5573C80.7811 13.1907 80.5726 12.901 80.2927 12.6883C80.0156 12.4728 79.6672 12.365 79.2473 12.365C78.8443 12.365 78.5056 12.4672 78.2313 12.6715C77.957 12.873 77.7499 13.1557 77.6099 13.5196C77.47 13.8806 77.4 14.3019 77.4 14.7833Z" fill="white"/>
<path d="M86.2502 18.142C85.6681 18.142 85.1573 18.0034 84.7178 17.7263C84.2812 17.4492 83.9397 17.0616 83.6934 16.5634C83.4499 16.0652 83.3281 15.483 83.3281 14.8169C83.3281 14.1451 83.4499 13.5587 83.6934 13.0577C83.9397 12.5567 84.2812 12.1677 84.7178 11.8906C85.1573 11.6135 85.6681 11.4749 86.2502 11.4749C86.8324 11.4749 87.3418 11.6135 87.7784 11.8906C88.2179 12.1677 88.5593 12.5567 88.8029 13.0577C89.0492 13.5587 89.1723 14.1451 89.1723 14.8169C89.1723 15.483 89.0492 16.0652 88.8029 16.5634C88.5593 17.0616 88.2179 17.4492 87.7784 17.7263C87.3418 18.0034 86.8324 18.142 86.2502 18.142ZM86.2502 17.2519C86.6925 17.2519 87.0563 17.1386 87.3418 16.9119C87.6273 16.6851 87.8386 16.3871 87.9758 16.0176C88.1129 15.6481 88.1815 15.2479 88.1815 14.8169C88.1815 14.3858 88.1129 13.9842 87.9758 13.6119C87.8386 13.2397 87.6273 12.9388 87.3418 12.7093C87.0563 12.4797 86.6925 12.365 86.2502 12.365C85.808 12.365 85.4441 12.4797 85.1586 12.7093C84.8732 12.9388 84.6618 13.2397 84.5247 13.6119C84.3875 13.9842 84.319 14.3858 84.319 14.8169C84.319 15.2479 84.3875 15.6481 84.5247 16.0176C84.6618 16.3871 84.8732 16.6851 85.1586 16.9119C85.4441 17.1386 85.808 17.2519 86.2502 17.2519Z" fill="white"/>
<path d="M91.6756 14.1283V18.0076H90.6848V11.5589H91.642V12.5665H91.726C91.8771 12.239 92.1066 11.9759 92.4145 11.7772C92.7224 11.5757 93.1199 11.4749 93.6069 11.4749C94.0435 11.4749 94.4256 11.5645 94.753 11.7436C95.0805 11.92 95.3352 12.1887 95.5171 12.5497C95.6991 12.908 95.79 13.3614 95.79 13.91V18.0076H94.7992V13.9772C94.7992 13.4706 94.6677 13.0759 94.4046 12.7932C94.1415 12.5077 93.7804 12.365 93.3214 12.365C93.0051 12.365 92.7224 12.4336 92.4733 12.5707C92.227 12.7079 92.0325 12.908 91.8897 13.1711C91.747 13.4342 91.6756 13.7533 91.6756 14.1283Z" fill="white"/>
<path d="M97.6006 18.0076V11.5589H98.5914V18.0076H97.6006ZM98.1044 10.4841C97.9113 10.4841 97.7447 10.4183 97.6048 10.2868C97.4676 10.1552 97.3991 9.9971 97.3991 9.81237C97.3991 9.62764 97.4676 9.4695 97.6048 9.33795C97.7447 9.2064 97.9113 9.14062 98.1044 9.14062C98.2975 9.14062 98.4627 9.2064 98.5998 9.33795C98.7398 9.4695 98.8097 9.62764 98.8097 9.81237C98.8097 9.9971 98.7398 10.1552 98.5998 10.2868C98.4627 10.4183 98.2975 10.4841 98.1044 10.4841Z" fill="white"/>
<path d="M100.541 18.0076V9.40932H101.531V12.5833H101.615C101.688 12.4714 101.789 12.3286 101.918 12.1551C102.049 11.9787 102.237 11.822 102.48 11.6849C102.726 11.5449 103.06 11.4749 103.479 11.4749C104.022 11.4749 104.501 11.6107 104.915 11.8822C105.329 12.1537 105.653 12.5385 105.885 13.0367C106.117 13.5349 106.234 14.1227 106.234 14.8001C106.234 15.483 106.117 16.075 105.885 16.576C105.653 17.0742 105.331 17.4604 104.919 17.7347C104.508 18.0062 104.034 18.142 103.496 18.142C103.082 18.142 102.75 18.0734 102.501 17.9363C102.252 17.7963 102.06 17.6382 101.926 17.4618C101.792 17.2827 101.688 17.1344 101.615 17.0168H101.498V18.0076H100.541ZM101.515 14.7833C101.515 15.2703 101.586 15.6999 101.729 16.0722C101.871 16.4416 102.08 16.7313 102.354 16.9412C102.629 17.1484 102.964 17.2519 103.362 17.2519C103.776 17.2519 104.122 17.1428 104.399 16.9244C104.679 16.7033 104.889 16.4066 105.029 16.0344C105.171 15.6593 105.243 15.2423 105.243 14.7833C105.243 14.3298 105.173 13.9212 105.033 13.5573C104.896 13.1907 104.687 12.901 104.407 12.6883C104.13 12.4728 103.782 12.365 103.362 12.365C102.959 12.365 102.62 12.4672 102.346 12.6715C102.072 12.873 101.864 13.1557 101.724 13.5196C101.585 13.8806 101.515 14.3019 101.515 14.7833Z" fill="white"/>
<path d="M108.74 9.40932V18.0076H107.749V9.40932H108.74Z" fill="white"/>
<path d="M113.259 18.142C112.637 18.142 112.101 18.0048 111.651 17.7305C111.203 17.4534 110.857 17.0672 110.614 16.5718C110.373 16.0736 110.252 15.4942 110.252 14.8336C110.252 14.1731 110.373 13.5909 110.614 13.0871C110.857 12.5805 111.196 12.1859 111.63 11.9032C112.066 11.6177 112.576 11.4749 113.158 11.4749C113.494 11.4749 113.825 11.5309 114.153 11.6429C114.48 11.7548 114.778 11.9368 115.047 12.1887C115.316 12.4378 115.53 12.768 115.689 13.1795C115.849 13.5909 115.929 14.0975 115.929 14.6993V15.1191H110.958V14.2627H114.921C114.921 13.8988 114.848 13.5741 114.703 13.2886C114.56 13.0031 114.356 12.7778 114.09 12.6127C113.827 12.4476 113.516 12.365 113.158 12.365C112.763 12.365 112.422 12.463 112.133 12.6589C111.848 12.852 111.628 13.1039 111.474 13.4146C111.32 13.7253 111.243 14.0583 111.243 14.4138V14.9848C111.243 15.4718 111.327 15.8846 111.495 16.2233C111.666 16.5592 111.902 16.8153 112.205 16.9916C112.507 17.1652 112.858 17.2519 113.259 17.2519C113.519 17.2519 113.754 17.2155 113.964 17.1428C114.177 17.0672 114.36 16.9552 114.514 16.8069C114.668 16.6558 114.787 16.4682 114.871 16.2443L115.828 16.513C115.727 16.8377 115.558 17.1232 115.32 17.3695C115.082 17.613 114.788 17.8033 114.438 17.9405C114.088 18.0748 113.695 18.142 113.259 18.142Z" fill="white"/>
<path d="M125.329 13.0031L124.439 13.2551C124.383 13.1067 124.3 12.9626 124.191 12.8226C124.085 12.6799 123.939 12.5623 123.754 12.47C123.57 12.3776 123.333 12.3314 123.045 12.3314C122.65 12.3314 122.321 12.4224 122.058 12.6043C121.798 12.7834 121.668 13.0115 121.668 13.2886C121.668 13.5349 121.757 13.7295 121.937 13.8722C122.116 14.015 122.396 14.1339 122.776 14.2291L123.733 14.4642C124.31 14.6041 124.74 14.8183 125.022 15.1065C125.305 15.392 125.446 15.7601 125.446 16.2107C125.446 16.5802 125.34 16.9105 125.127 17.2015C124.917 17.4926 124.624 17.7221 124.246 17.8901C123.868 18.058 123.428 18.142 122.927 18.142C122.27 18.142 121.725 17.9992 121.294 17.7137C120.863 17.4283 120.59 17.0112 120.476 16.4626L121.416 16.2275C121.506 16.5746 121.675 16.8349 121.924 17.0084C122.176 17.182 122.505 17.2687 122.911 17.2687C123.372 17.2687 123.739 17.1708 124.011 16.9748C124.285 16.7761 124.422 16.5382 124.422 16.2611C124.422 16.0372 124.344 15.8497 124.187 15.6985C124.03 15.5446 123.789 15.4298 123.465 15.3542L122.39 15.1023C121.799 14.9624 121.366 14.7455 121.089 14.4516C120.814 14.1549 120.677 13.784 120.677 13.339C120.677 12.9752 120.779 12.6533 120.984 12.3734C121.191 12.0935 121.472 11.8738 121.827 11.7142C122.186 11.5547 122.592 11.4749 123.045 11.4749C123.683 11.4749 124.184 11.6149 124.548 11.8948C124.915 12.1747 125.175 12.5441 125.329 13.0031Z" fill="white"/>
<path d="M131.002 15.371V11.5589H131.993V18.0076H131.002V16.9161H130.935C130.784 17.2435 130.549 17.522 130.229 17.7515C129.91 17.9782 129.507 18.0916 129.02 18.0916C128.617 18.0916 128.259 18.0034 127.946 17.8271C127.632 17.648 127.386 17.3793 127.207 17.021C127.027 16.6599 126.938 16.2051 126.938 15.6565V11.5589H127.929V15.5894C127.929 16.0596 128.06 16.4346 128.323 16.7145C128.589 16.9944 128.928 17.1344 129.339 17.1344C129.586 17.1344 129.836 17.0714 130.091 16.9454C130.348 16.8195 130.564 16.6264 130.737 16.3661C130.914 16.1058 131.002 15.7741 131.002 15.371Z" fill="white"/>
<path d="M133.808 18.0076V11.5589H134.765V12.5329H134.832C134.95 12.2139 135.162 11.9549 135.47 11.7562C135.778 11.5575 136.125 11.4581 136.511 11.4581C136.584 11.4581 136.675 11.4595 136.784 11.4623C136.893 11.4651 136.976 11.4693 137.032 11.4749V12.4825C136.998 12.4741 136.921 12.4616 136.801 12.4448C136.683 12.4252 136.559 12.4154 136.427 12.4154C136.114 12.4154 135.834 12.4811 135.588 12.6127C135.344 12.7414 135.151 12.9206 135.008 13.1501C134.868 13.3768 134.798 13.6357 134.798 13.9268V18.0076H133.808Z" fill="white"/>
<path d="M95.2017 30.6702C91.9154 30.6702 89.2369 33.1698 89.2369 36.6126C89.2369 40.0344 91.9154 42.555 95.2017 42.555C98.4893 42.555 101.168 40.0344 101.168 36.6126C101.166 33.1698 98.4879 30.6702 95.2017 30.6702ZM95.2017 40.2161C93.4006 40.2161 91.8483 38.7308 91.8483 36.614C91.8483 34.4749 93.402 33.012 95.2017 33.012C97.0027 33.012 98.555 34.4749 98.555 36.614C98.555 38.7294 97.0027 40.2161 95.2017 40.2161ZM82.1879 30.6702C78.9016 30.6702 76.2231 33.1698 76.2231 36.6126C76.2231 40.0344 78.9016 42.555 82.1879 42.555C85.4756 42.555 88.154 40.0344 88.154 36.6126C88.154 33.1698 85.4756 30.6702 82.1879 30.6702ZM82.1879 40.2161C80.3869 40.2161 78.8345 38.7308 78.8345 36.614C78.8345 34.4749 80.3883 33.012 82.1879 33.012C83.9889 33.012 85.5412 34.4749 85.5412 36.614C85.5426 38.7294 83.9889 40.2161 82.1879 40.2161ZM66.7094 32.495V35.0156H72.7426C72.5624 36.4338 72.0901 37.4691 71.3692 38.1887C70.4917 39.0661 69.1182 40.0344 66.7094 40.0344C62.9956 40.0344 60.0922 37.0402 60.0922 33.3263C60.0922 29.6125 62.9956 26.6183 66.7094 26.6183C68.713 26.6183 70.1759 27.4063 71.256 28.4193L73.0347 26.6406C71.5257 25.2001 69.5234 24.0977 66.7094 24.0977C61.6221 24.0977 57.3452 28.239 57.3452 33.3263C57.3452 38.4136 61.6221 42.555 66.7094 42.555C69.455 42.555 71.5271 41.6538 73.1464 39.9659C74.8119 38.3005 75.3303 35.9587 75.3303 34.0683C75.3303 33.4842 75.2856 32.9435 75.1948 32.4936H66.7094V32.495ZM130.015 34.4525C129.52 33.1251 128.011 30.6702 124.928 30.6702C121.866 30.6702 119.322 33.079 119.322 36.6126C119.322 39.9436 121.844 42.555 125.22 42.555C127.943 42.555 129.519 40.8895 130.173 39.9212L128.147 38.5701C127.472 39.5608 126.548 40.2133 125.22 40.2133C123.892 40.2133 122.946 39.6055 122.339 38.4122L130.285 35.126L130.015 34.4525ZM121.911 36.4338C121.844 34.1367 123.69 32.9672 125.018 32.9672C126.054 32.9672 126.931 33.4856 127.225 34.2275L121.911 36.4338ZM115.452 42.1959H118.062V24.7292H115.452V42.1959ZM111.173 31.999H111.084C110.498 31.3004 109.372 30.6702 107.956 30.6702C104.984 30.6702 102.26 33.2816 102.26 36.6364C102.26 39.9673 104.984 42.5564 107.956 42.5564C109.374 42.5564 110.498 41.9263 111.084 41.2067H111.173V42.0618C111.173 44.3351 109.958 45.5507 108 45.5507C106.402 45.5507 105.411 44.4035 105.006 43.4353L102.733 44.3812C103.385 45.9559 105.118 47.8924 108 47.8924C111.062 47.8924 113.651 46.0914 113.651 41.7013V31.0321H111.175V31.999H111.173ZM108.18 40.2161C106.379 40.2161 104.872 38.707 104.872 36.6364C104.872 34.5419 106.379 33.012 108.18 33.012C109.958 33.012 111.354 34.5419 111.354 36.6364C111.354 38.707 109.958 40.2161 108.18 40.2161ZM142.246 24.7292H135.999V42.1959H138.605V35.5787H142.245C145.134 35.5787 147.976 33.487 147.976 30.1546C147.976 26.8222 145.136 24.7292 142.246 24.7292ZM142.313 33.1475H138.605V27.1604H142.313C144.262 27.1604 145.369 28.7742 145.369 30.1546C145.369 31.5071 144.262 33.1475 142.313 33.1475ZM158.426 30.6395C156.538 30.6395 154.584 31.4708 153.775 33.3138L156.089 34.2792C156.583 33.3138 157.505 32.998 158.471 32.998C159.819 32.998 161.19 33.807 161.212 35.2447V35.425C160.74 35.1553 159.728 34.7515 158.493 34.7515C155.999 34.7515 153.459 36.1222 153.459 38.6833C153.459 41.0209 155.505 42.5257 157.796 42.5257C159.548 42.5257 160.515 41.739 161.121 40.8169H161.211V42.1652H163.729V35.4683C163.73 32.3692 161.413 30.6395 158.426 30.6395ZM158.11 40.2119C157.258 40.2119 156.066 39.7843 156.066 38.728C156.066 37.3797 157.55 36.8627 158.831 36.8627C159.976 36.8627 160.516 37.11 161.212 37.4468C161.01 39.0661 159.617 40.2119 158.11 40.2119ZM172.897 31.0209L169.909 38.5939H169.819L166.717 31.0209H163.909L168.56 41.6049L165.908 47.4928H168.627L175.796 31.0209H172.897ZM149.415 42.1959H152.021V24.7292H149.415V42.1959Z" fill="white"/>
<defs>
<filter id="filter0_ii_6040_2129" x="15.6765" y="10.2549" width="36.2947" height="35.9395" filterUnits="userSpaceOnUse" color-interpolation-filters="sRGB">
<feFlood flood-opacity="0" result="BackgroundImageFix"/>
<feBlend mode="normal" in="SourceGraphic" in2="BackgroundImageFix" result="shape"/>
<feColorMatrix in="SourceAlpha" type="matrix" values="0 0 0 0 0 0 0 0 0 0 0 0 0 0 0 0 0 0 127 0" result="hardAlpha"/>
<feOffset dy="-0.25277"/>
<feComposite in2="hardAlpha" operator="arithmetic" k2="-1" k3="1"/>
<feColorMatrix type="matrix" values="0 0 0 0 0 0 0 0 0 0 0 0 0 0 0 0 0 0 0.12 0"/>
<feBlend mode="normal" in2="shape" result="effect1_innerShadow_6040_2129"/>
<feColorMatrix in="SourceAlpha" type="matrix" values="0 0 0 0 0 0 0 0 0 0 0 0 0 0 0 0 0 0 127 0" result="hardAlpha"/>
<feOffset dy="0.25277"/>
<feComposite in2="hardAlpha" operator="arithmetic" k2="-1" k3="1"/>
<feColorMatrix type="matrix" values="0 0 0 0 1 0 0 0 0 1 0 0 0 0 1 0 0 0 0.25 0"/>
<feBlend mode="normal" in2="effect1_innerShadow_6040_2129" result="effect2_innerShadow_6040_2129"/>
</filter>
<filter id="filter1_i_6040_2129" x="16.405" y="28.2246" width="26.2283" height="17.9697" filterUnits="userSpaceOnUse" color-interpolation-filters="sRGB">
<feFlood flood-opacity="0" result="BackgroundImageFix"/>
<feBlend mode="normal" in="SourceGraphic" in2="BackgroundImageFix" result="shape"/>
<feColorMatrix in="SourceAlpha" type="matrix" values="0 0 0 0 0 0 0 0 0 0 0 0 0 0 0 0 0 0 127 0" result="hardAlpha"/>
<feOffset dy="-0.25277"/>
<feComposite in2="hardAlpha" operator="arithmetic" k2="-1" k3="1"/>
<feColorMatrix type="matrix" values="0 0 0 0 0 0 0 0 0 0 0 0 0 0 0 0 0 0 0.08 0"/>
<feBlend mode="normal" in2="shape" result="effect1_innerShadow_6040_2129"/>
</filter>
<linearGradient id="paint0_linear_6040_2129" x1="34.2684" y1="12.4462" x2="10.9819" y2="38.6435" gradientUnits="userSpaceOnUse">
<stop stop-color="#00A0FF"/>
<stop offset="0.0066" stop-color="#00A1FF"/>
<stop offset="0.2601" stop-color="#00BEFF"/>
<stop offset="0.5122" stop-color="#00D2FF"/>
<stop offset="0.7604" stop-color="#00DFFF"/>
<stop offset="1" stop-color="#00E3FF"/>
</linearGradient>
<linearGradient id="paint1_linear_6040_2129" x1="53.1828" y1="28.2236" x2="15.1498" y2="28.2236" gradientUnits="userSpaceOnUse">
<stop stop-color="#FFE000"/>
<stop offset="0.4087" stop-color="#FFBD00"/>
<stop offset="0.7754" stop-color="#FFA500"/>
<stop offset="1" stop-color="#FF9C00"/>
</linearGradient>
<linearGradient id="paint2_linear_6040_2129" x1="39.0277" y1="31.4297" x2="7.44821" y2="66.9566" gradientUnits="userSpaceOnUse">
<stop stop-color="#FF3A44"/>
<stop offset="1" stop-color="#C31162"/>
</linearGradient>
<linearGradient id="paint3_linear_6040_2129" x1="11.4715" y1="0.524429" x2="25.5726" y2="16.3882" gradientUnits="userSpaceOnUse">
<stop stop-color="#32A071"/>
<stop offset="0.0685" stop-color="#2DA771"/>
<stop offset="0.4762" stop-color="#15CF74"/>
<stop offset="0.8009" stop-color="#06E775"/>
<stop offset="1" stop-color="#00F076"/>
</linearGradient>
</defs>
</svg>
