<svg width="169" height="57" viewBox="0 0 169 57" fill="none" xmlns="http://www.w3.org/2000/svg">
<rect width="167.667" height="55.889" rx="13.481" transform="matrix(1 0 0 -1 0.523682 56.168)" fill="#292929"/>
<path d="M53.6578 20.157H51.0044V11.5587H53.7753C54.6094 11.5587 55.3231 11.7309 55.9165 12.0751C56.5099 12.4166 56.9647 12.9078 57.281 13.5488C57.5973 14.1869 57.7554 14.951 57.7554 15.8411C57.7554 16.7368 57.5959 17.5079 57.2768 18.1544C56.9577 18.7982 56.4931 19.2936 55.8829 19.6406C55.2728 19.9849 54.531 20.157 53.6578 20.157ZM52.0456 19.2334H53.5906C54.3015 19.2334 54.8907 19.0963 55.3581 18.822C55.8256 18.5477 56.174 18.1572 56.4035 17.6506C56.633 17.144 56.7478 16.5408 56.7478 15.8411C56.7478 15.147 56.6344 14.5494 56.4077 14.0484C56.181 13.5446 55.8423 13.1583 55.3917 12.8896C54.9411 12.6181 54.3799 12.4824 53.7082 12.4824H52.0456V19.2334Z" fill="white"/>
<path d="M59.3676 20.157V13.7083H60.3584V20.157H59.3676ZM59.8714 12.6335C59.6783 12.6335 59.5117 12.5678 59.3718 12.4362C59.2346 12.3047 59.1661 12.1465 59.1661 11.9618C59.1661 11.7771 59.2346 11.6189 59.3718 11.4874C59.5117 11.3558 59.6783 11.29 59.8714 11.29C60.0645 11.29 60.2297 11.3558 60.3668 11.4874C60.5068 11.6189 60.5767 11.7771 60.5767 11.9618C60.5767 12.1465 60.5068 12.3047 60.3668 12.4362C60.2297 12.5678 60.0645 12.6335 59.8714 12.6335Z" fill="white"/>
<path d="M66.741 15.1526L65.851 15.4045C65.795 15.2561 65.7124 15.112 65.6033 14.972C65.4969 14.8293 65.3514 14.7117 65.1666 14.6194C64.9819 14.527 64.7454 14.4808 64.4571 14.4808C64.0625 14.4808 63.7336 14.5718 63.4705 14.7537C63.2102 14.9328 63.08 15.161 63.08 15.4381C63.08 15.6844 63.1696 15.8789 63.3487 16.0216C63.5279 16.1644 63.8077 16.2833 64.1884 16.3785L65.1456 16.6136C65.7222 16.7536 66.1519 16.9677 66.4345 17.256C66.7172 17.5414 66.8586 17.9095 66.8586 18.3601C66.8586 18.7296 66.7522 19.0599 66.5395 19.351C66.3296 19.642 66.0357 19.8716 65.6578 20.0395C65.28 20.2074 64.8406 20.2914 64.3395 20.2914C63.6818 20.2914 63.1374 20.1487 62.7064 19.8632C62.2753 19.5777 62.0024 19.1606 61.8877 18.612L62.8281 18.3769C62.9177 18.724 63.087 18.9843 63.3361 19.1578C63.588 19.3314 63.9169 19.4181 64.3228 19.4181C64.7846 19.4181 65.1512 19.3202 65.4227 19.1242C65.697 18.9255 65.8342 18.6876 65.8342 18.4105C65.8342 18.1866 65.7558 17.9991 65.5991 17.8479C65.4423 17.694 65.2016 17.5792 64.8769 17.5037L63.8022 17.2518C63.2116 17.1118 62.7777 16.8949 62.5006 16.601C62.2264 16.3043 62.0892 15.9335 62.0892 15.4884C62.0892 15.1246 62.1914 14.8027 62.3957 14.5228C62.6028 14.2429 62.8841 14.0232 63.2396 13.8637C63.5978 13.7041 64.0037 13.6243 64.4571 13.6243C65.0953 13.6243 65.5963 13.7643 65.9601 14.0442C66.3268 14.3241 66.5871 14.6935 66.741 15.1526Z" fill="white"/>
<path d="M68.3501 22.5753V13.7083H69.3073V14.7327H69.4249C69.4976 14.6208 69.5984 14.478 69.7271 14.3045C69.8587 14.1282 70.0462 13.9714 70.2897 13.8343C70.536 13.6943 70.8691 13.6243 71.2889 13.6243C71.8319 13.6243 72.3105 13.7601 72.7248 14.0316C73.139 14.3031 73.4623 14.6879 73.6946 15.1861C73.9269 15.6844 74.0431 16.2721 74.0431 16.9495C74.0431 17.6324 73.9269 18.2244 73.6946 18.7254C73.4623 19.2236 73.1404 19.6099 72.729 19.8842C72.3175 20.1556 71.8431 20.2914 71.3057 20.2914C70.8915 20.2914 70.5598 20.2228 70.3107 20.0857C70.0616 19.9457 69.8699 19.7876 69.7355 19.6113C69.6012 19.4321 69.4976 19.2838 69.4249 19.1662H69.3409V22.5753H68.3501ZM69.3241 16.9327C69.3241 17.4197 69.3955 17.8493 69.5382 18.2216C69.681 18.591 69.8895 18.8807 70.1638 19.0907C70.4381 19.2978 70.7739 19.4013 71.1714 19.4013C71.5856 19.4013 71.9313 19.2922 72.2084 19.0739C72.4883 18.8527 72.6982 18.5561 72.8381 18.1838C72.9809 17.8087 73.0523 17.3917 73.0523 16.9327C73.0523 16.4793 72.9823 16.0706 72.8423 15.7067C72.7052 15.3401 72.4967 15.0504 72.2168 14.8377C71.9397 14.6222 71.5912 14.5144 71.1714 14.5144C70.7683 14.5144 70.4297 14.6166 70.1554 14.8209C69.8811 15.0224 69.674 15.3051 69.534 15.669C69.3941 16.03 69.3241 16.4513 69.3241 16.9327Z" fill="white"/>
<path d="M78.1743 20.2914C77.5921 20.2914 77.0813 20.1529 76.6419 19.8758C76.2053 19.5987 75.8638 19.211 75.6175 18.7128C75.374 18.2146 75.2522 17.6324 75.2522 16.9663C75.2522 16.2945 75.374 15.7081 75.6175 15.2071C75.8638 14.7061 76.2053 14.3171 76.6419 14.04C77.0813 13.7629 77.5921 13.6243 78.1743 13.6243C78.7565 13.6243 79.2659 13.7629 79.7025 14.04C80.142 14.3171 80.4834 14.7061 80.7269 15.2071C80.9732 15.7081 81.0964 16.2945 81.0964 16.9663C81.0964 17.6324 80.9732 18.2146 80.7269 18.7128C80.4834 19.211 80.142 19.5987 79.7025 19.8758C79.2659 20.1529 78.7565 20.2914 78.1743 20.2914ZM78.1743 19.4013C78.6165 19.4013 78.9804 19.288 79.2659 19.0613C79.5514 18.8346 79.7627 18.5365 79.8998 18.167C80.037 17.7976 80.1056 17.3973 80.1056 16.9663C80.1056 16.5352 80.037 16.1336 79.8998 15.7613C79.7627 15.3891 79.5514 15.0882 79.2659 14.8587C78.9804 14.6292 78.6165 14.5144 78.1743 14.5144C77.7321 14.5144 77.3682 14.6292 77.0827 14.8587C76.7972 15.0882 76.5859 15.3891 76.4488 15.7613C76.3116 16.1336 76.243 16.5352 76.243 16.9663C76.243 17.3973 76.3116 17.7976 76.4488 18.167C76.5859 18.5365 76.7972 18.8346 77.0827 19.0613C77.3682 19.288 77.7321 19.4013 78.1743 19.4013Z" fill="white"/>
<path d="M83.5997 16.2777V20.157H82.6089V13.7083H83.5661V14.7159H83.6501C83.8012 14.3885 84.0307 14.1254 84.3386 13.9266C84.6465 13.7251 85.0439 13.6243 85.5309 13.6243C85.9676 13.6243 86.3496 13.7139 86.6771 13.893C87.0046 14.0694 87.2593 14.3381 87.4412 14.6991C87.6231 15.0574 87.7141 15.5108 87.7141 16.0594V20.157H86.7233V16.1266C86.7233 15.62 86.5917 15.2253 86.3286 14.9426C86.0655 14.6572 85.7045 14.5144 85.2454 14.5144C84.9292 14.5144 84.6465 14.583 84.3974 14.7201C84.1511 14.8573 83.9565 15.0574 83.8138 15.3205C83.6711 15.5836 83.5997 15.9027 83.5997 16.2777Z" fill="white"/>
<path d="M89.5247 20.157V13.7083H90.5155V20.157H89.5247ZM90.0285 12.6335C89.8353 12.6335 89.6688 12.5678 89.5289 12.4362C89.3917 12.3047 89.3231 12.1465 89.3231 11.9618C89.3231 11.7771 89.3917 11.6189 89.5289 11.4874C89.6688 11.3558 89.8353 11.29 90.0285 11.29C90.2216 11.29 90.3867 11.3558 90.5239 11.4874C90.6638 11.6189 90.7338 11.7771 90.7338 11.9618C90.7338 12.1465 90.6638 12.3047 90.5239 12.4362C90.3867 12.5678 90.2216 12.6335 90.0285 12.6335Z" fill="white"/>
<path d="M92.4646 20.157V11.5587H93.4554V14.7327H93.5394C93.6122 14.6208 93.7129 14.478 93.8417 14.3045C93.9732 14.1282 94.1607 13.9714 94.4042 13.8343C94.6506 13.6943 94.9836 13.6243 95.4035 13.6243C95.9465 13.6243 96.4251 13.7601 96.8393 14.0316C97.2536 14.3031 97.5768 14.6879 97.8092 15.1861C98.0415 15.6844 98.1576 16.2721 98.1576 16.9495C98.1576 17.6324 98.0415 18.2244 97.8092 18.7254C97.5768 19.2236 97.255 19.6099 96.8435 19.8842C96.4321 20.1556 95.9577 20.2914 95.4203 20.2914C95.006 20.2914 94.6743 20.2228 94.4252 20.0857C94.1761 19.9457 93.9844 19.7876 93.8501 19.6113C93.7157 19.4321 93.6122 19.2838 93.5394 19.1662H93.4218V20.157H92.4646ZM93.4386 16.9327C93.4386 17.4197 93.51 17.8493 93.6527 18.2216C93.7955 18.591 94.004 18.8807 94.2783 19.0907C94.5526 19.2978 94.8885 19.4013 95.2859 19.4013C95.7002 19.4013 96.0458 19.2922 96.3229 19.0739C96.6028 18.8527 96.8127 18.5561 96.9527 18.1838C97.0954 17.8087 97.1668 17.3917 97.1668 16.9327C97.1668 16.4793 97.0968 16.0706 96.9569 15.7067C96.8197 15.3401 96.6112 15.0504 96.3313 14.8377C96.0542 14.6222 95.7058 14.5144 95.2859 14.5144C94.8829 14.5144 94.5442 14.6166 94.2699 14.8209C93.9956 15.0224 93.7885 15.3051 93.6485 15.669C93.5086 16.03 93.4386 16.4513 93.4386 16.9327Z" fill="white"/>
<path d="M100.664 11.5587V20.157H99.6732V11.5587H100.664Z" fill="white"/>
<path d="M105.183 20.2914C104.561 20.2914 104.025 20.1542 103.575 19.88C103.127 19.6029 102.781 19.2166 102.538 18.7212C102.297 18.223 102.177 17.6436 102.177 16.9831C102.177 16.3225 102.297 15.7403 102.538 15.2365C102.781 14.7299 103.12 14.3353 103.554 14.0526C103.99 13.7671 104.5 13.6243 105.082 13.6243C105.418 13.6243 105.749 13.6803 106.077 13.7923C106.404 13.9042 106.702 14.0862 106.971 14.3381C107.24 14.5872 107.454 14.9175 107.613 15.3289C107.773 15.7403 107.853 16.2469 107.853 16.8487V17.2686H102.882V16.4121H106.845C106.845 16.0482 106.772 15.7235 106.627 15.4381C106.484 15.1526 106.28 14.9272 106.014 14.7621C105.751 14.597 105.44 14.5144 105.082 14.5144C104.687 14.5144 104.346 14.6124 104.057 14.8083C103.772 15.0014 103.552 15.2533 103.398 15.564C103.244 15.8747 103.167 16.2078 103.167 16.5632V17.1342C103.167 17.6212 103.251 18.0341 103.419 18.3727C103.59 18.7086 103.826 18.9647 104.129 19.141C104.431 19.3146 104.782 19.4013 105.183 19.4013C105.443 19.4013 105.678 19.365 105.888 19.2922C106.101 19.2166 106.284 19.1047 106.438 18.9563C106.592 18.8052 106.711 18.6176 106.795 18.3937L107.752 18.6624C107.651 18.9871 107.482 19.2726 107.244 19.5189C107.006 19.7624 106.712 19.9527 106.362 20.0899C106.012 20.2242 105.619 20.2914 105.183 20.2914Z" fill="white"/>
<path d="M117.253 15.1526L116.363 15.4045C116.307 15.2561 116.224 15.112 116.115 14.972C116.009 14.8293 115.863 14.7117 115.679 14.6194C115.494 14.527 115.257 14.4808 114.969 14.4808C114.574 14.4808 114.246 14.5718 113.982 14.7537C113.722 14.9328 113.592 15.161 113.592 15.4381C113.592 15.6844 113.682 15.8789 113.861 16.0216C114.04 16.1644 114.32 16.2833 114.7 16.3785L115.658 16.6136C116.234 16.7536 116.664 16.9677 116.946 17.256C117.229 17.5414 117.371 17.9095 117.371 18.3601C117.371 18.7296 117.264 19.0599 117.051 19.351C116.842 19.642 116.548 19.8716 116.17 20.0395C115.792 20.2074 115.352 20.2914 114.851 20.2914C114.194 20.2914 113.649 20.1487 113.218 19.8632C112.787 19.5777 112.514 19.1606 112.4 18.612L113.34 18.3769C113.43 18.724 113.599 18.9843 113.848 19.1578C114.1 19.3314 114.429 19.4181 114.835 19.4181C115.297 19.4181 115.663 19.3202 115.935 19.1242C116.209 18.9255 116.346 18.6876 116.346 18.4105C116.346 18.1866 116.268 17.9991 116.111 17.8479C115.954 17.694 115.714 17.5792 115.389 17.5037L114.314 17.2518C113.724 17.1118 113.29 16.8949 113.013 16.601C112.738 16.3043 112.601 15.9335 112.601 15.4884C112.601 15.1246 112.703 14.8027 112.908 14.5228C113.115 14.2429 113.396 14.0232 113.752 13.8637C114.11 13.7041 114.516 13.6243 114.969 13.6243C115.607 13.6243 116.108 13.7643 116.472 14.0442C116.839 14.3241 117.099 14.6935 117.253 15.1526Z" fill="white"/>
<path d="M122.926 17.5205V13.7083H123.917V20.157H122.926V19.0655H122.859C122.708 19.3929 122.473 19.6714 122.154 19.9009C121.834 20.1277 121.431 20.241 120.944 20.241C120.541 20.241 120.183 20.1529 119.87 19.9765C119.556 19.7974 119.31 19.5287 119.131 19.1704C118.952 18.8094 118.862 18.3545 118.862 17.8059V13.7083H119.853V17.7388C119.853 18.209 119.984 18.584 120.247 18.8639C120.513 19.1438 120.852 19.2838 121.263 19.2838C121.51 19.2838 121.76 19.2208 122.015 19.0949C122.272 18.9689 122.488 18.7758 122.662 18.5155C122.838 18.2552 122.926 17.9235 122.926 17.5205Z" fill="white"/>
<path d="M125.732 20.157V13.7083H126.689V14.6823H126.756C126.874 14.3633 127.086 14.1044 127.394 13.9056C127.702 13.7069 128.049 13.6076 128.435 13.6076C128.508 13.6076 128.599 13.609 128.708 13.6118C128.817 13.6145 128.9 13.6187 128.956 13.6243V14.632C128.922 14.6236 128.845 14.611 128.725 14.5942C128.608 14.5746 128.483 14.5648 128.351 14.5648C128.038 14.5648 127.758 14.6306 127.512 14.7621C127.268 14.8909 127.075 15.07 126.932 15.2995C126.792 15.5262 126.722 15.7851 126.722 16.0762V20.157H125.732Z" fill="white"/>
<path d="M114.433 27.1061V30.3071H112.427V32.4064H114.433V39.5392C114.433 41.9748 115.535 42.949 118.307 42.949C118.794 42.949 119.258 42.891 119.664 42.8214V40.7454C119.316 40.7802 119.096 40.8034 118.713 40.8034C117.472 40.8034 116.927 40.2235 116.927 38.9013V32.4064H119.664V30.3071H116.927V27.1061H114.433Z" fill="white"/>
<path d="M126.725 43.123C130.414 43.123 132.675 40.6526 132.675 36.5585C132.675 32.4876 130.402 30.0056 126.725 30.0056C123.037 30.0056 120.764 32.4876 120.764 36.5585C120.764 40.6526 123.026 43.123 126.725 43.123ZM126.725 40.9078C124.557 40.9078 123.339 39.3188 123.339 36.5585C123.339 33.8213 124.557 32.2208 126.725 32.2208C128.883 32.2208 130.112 33.8213 130.112 36.5585C130.112 39.3072 128.883 40.9078 126.725 40.9078Z" fill="white"/>
<path d="M134.61 42.8794H137.104V35.4219C137.104 33.6474 138.438 32.4528 140.328 32.4528C140.769 32.4528 141.511 32.5339 141.72 32.6035V30.1447C141.453 30.0752 140.978 30.0404 140.606 30.0404C138.959 30.0404 137.556 30.945 137.197 32.186H137.011V30.2491H134.61V42.8794Z" fill="white"/>
<path d="M147.911 32.128C149.755 32.128 150.962 33.4154 151.02 35.3987H144.641C144.78 33.427 146.067 32.128 147.911 32.128ZM151.008 39.4696C150.544 40.4554 149.512 41.0005 148.004 41.0005C146.009 41.0005 144.722 39.5972 144.641 37.3819V37.2428H153.56V36.3729C153.56 32.4064 151.437 30.0056 147.923 30.0056C144.362 30.0056 142.101 32.5687 142.101 36.6049C142.101 40.641 144.316 43.123 147.934 43.123C150.822 43.123 152.84 41.7312 153.409 39.4696H151.008Z" fill="white"/>
<path d="M98.0807 38.2153C98.273 41.3167 100.858 43.3002 104.704 43.3002C108.816 43.3002 111.388 41.2205 111.388 37.9027C111.388 35.2941 109.921 33.8516 106.363 33.0222L104.452 32.5533C102.192 32.0244 101.278 31.3152 101.278 30.077C101.278 28.5143 102.697 27.4925 104.825 27.4925C106.844 27.4925 108.238 28.4902 108.491 30.089H111.112C110.955 27.1679 108.383 25.1123 104.861 25.1123C101.074 25.1123 98.5495 27.1679 98.5495 30.2573C98.5495 32.8058 99.98 34.3204 103.118 35.0537L105.353 35.5947C107.649 36.1356 108.659 36.929 108.659 38.2513C108.659 39.79 107.072 40.908 104.909 40.908C102.589 40.908 100.978 39.8621 100.749 38.2153H98.0807Z" fill="white"/>
<path d="M72.2497 30.0404C70.5332 30.0404 69.0487 30.8986 68.2832 32.3368H68.0976V30.2491H65.6968V47.0779H68.1904V40.9657H68.3876C69.0487 42.2995 70.4752 43.0882 72.2729 43.0882C75.4624 43.0882 77.492 40.5714 77.492 36.5585C77.492 32.5455 75.4624 30.0404 72.2497 30.0404ZM71.5422 40.8498C69.4546 40.8498 68.144 39.2028 68.144 36.5701C68.144 33.9257 69.4546 32.2788 71.5538 32.2788C73.6647 32.2788 74.9289 33.8909 74.9289 36.5585C74.9289 39.2376 73.6647 40.8498 71.5422 40.8498Z" fill="white"/>
<path d="M86.2175 30.0404C84.501 30.0404 83.0164 30.8986 82.251 32.3368H82.0654V30.2491H79.6646V47.0779H82.1582V40.9657H82.3553C83.0164 42.2995 84.443 43.0882 86.2407 43.0882C89.4302 43.0882 91.4598 40.5714 91.4598 36.5585C91.4598 32.5455 89.4302 30.0404 86.2175 30.0404ZM85.51 40.8498C83.4224 40.8498 82.1118 39.2028 82.1118 36.5701C82.1118 33.9257 83.4224 32.2788 85.5216 32.2788C87.6325 32.2788 88.8967 33.8909 88.8967 36.5585C88.8967 39.2376 87.6325 40.8498 85.51 40.8498Z" fill="white"/>
<path d="M61.2229 42.8794H64.0839L57.8209 25.533H54.9239L48.6609 42.8794H51.4257L53.0245 38.2754H59.6361L61.2229 42.8794ZM56.2342 28.6826H56.4385L58.9509 36.0154H53.7097L56.2342 28.6826Z" fill="white"/>
<path d="M35.1308 28.6433C35.161 26.2945 36.4224 24.0721 38.4234 22.8419C37.161 21.039 35.0467 19.896 32.8468 19.8271C30.5006 19.5809 28.226 21.2311 27.0303 21.2311C25.8116 21.2311 23.9707 19.8516 21.9884 19.8924C19.4046 19.9758 16.9959 21.4449 15.7388 23.7038C13.0365 28.3823 15.0522 35.2581 17.6407 39.0399C18.9358 40.8917 20.4493 42.9602 22.4298 42.8869C24.3679 42.8065 25.0917 41.651 27.4311 41.651C29.7487 41.651 30.4278 42.8869 32.4485 42.8402C34.5281 42.8065 35.8384 40.9802 37.088 39.1108C38.0185 37.7913 38.7346 36.333 39.2096 34.7899C36.7657 33.7562 35.1336 31.2968 35.1308 28.6433Z" fill="white"/>
<path d="M31.314 17.3401C32.4479 15.9789 33.0065 14.2293 32.8712 12.4629C31.1389 12.6448 29.5387 13.4728 28.3895 14.7817C27.2658 16.0607 26.6809 17.7795 26.7915 19.4784C28.5245 19.4962 30.2281 18.6907 31.314 17.3401Z" fill="white"/>
</svg>
